HIERARCHY
ROOT hip
{
  OFFSET 230.897 79.4799 -1.75603
  CHANNELS 6 Xposition Yposition Zposition Zrotation Xrotation Yrotation
  JOINT abdomen
  {
    OFFSET 0 20.6881 -0.73152
    CHANNELS 3 Zrotation Xrotation Yrotation
    JOINT chest
    {
      OFFSET 0 11.7043 -0.48768
      CHANNELS 3 Zrotation Xrotation Yrotation
      JOINT neck
      {
        OFFSET 0 22.1894 -2.19456
        CHANNELS 3 Zrotation Xrotation Yrotation
        JOINT head
        {
          OFFSET -0.24384 7.07133 1.2192
          CHANNELS 3 Zrotation Xrotation Yrotation
          JOINT leftEye
          {
            OFFSET 4.14528 8.04674 8.04672
            CHANNELS 3 Zrotation Xrotation Yrotation
            End Site
            {
              OFFSET 1 0 0
            }
          }
          JOINT rightEye
          {
            OFFSET -3.6576 8.04674 8.04672
            CHANNELS 3 Zrotation Xrotation Yrotation
            End Site
            {
              OFFSET 1 0 0
            }
          }
        }
      }
      JOINT rCollar
      {
        OFFSET -2.68224 19.2634 -4.8768
        CHANNELS 3 Zrotation Xrotation Yrotation
        JOINT rShldr
        {
          OFFSET -8.77824 -1.95073 1.46304
          CHANNELS 3 Zrotation Xrotation Yrotation
          JOINT rForeArm
          {
            OFFSET -28.1742 -1.7115 0.48768
            CHANNELS 3 Zrotation Xrotation Yrotation
            JOINT rHand
            {
              OFFSET -22.5879 0.773209 7.07136
              CHANNELS 3 Zrotation Xrotation Yrotation
              JOINT rThumb1
              {
                OFFSET -1.2192 -0.487915 3.41376
                CHANNELS 3 Zrotation Xrotation Yrotation
                JOINT rThumb2
                {
                  OFFSET -3.37035 -0.52449 3.41376
                  CHANNELS 3 Zrotation Xrotation Yrotation
                  End Site
                  {
                    OFFSET -1.78271 -1.18214 1.43049
                  }
                }
              }
              JOINT rIndex1
              {
                OFFSET -7.75947 0.938293 5.60832
                CHANNELS 3 Zrotation Xrotation Yrotation
                JOINT rIndex2
                {
                  OFFSET -2.54057 -0.884171 1.56538
                  CHANNELS 3 Zrotation Xrotation Yrotation
                  End Site
                  {
                    OFFSET -1.62519 -0.234802 1.16502
                  }
                }
              }
              JOINT rMid1
              {
                OFFSET -8.24714 1.18213 3.41376
                CHANNELS 3 Zrotation Xrotation Yrotation
                JOINT rMid2
                {
                  OFFSET -3.10165 -0.590103 1.0647
                  CHANNELS 3 Zrotation Xrotation Yrotation
                  End Site
                  {
                    OFFSET -2.48547 -0.328903 0.83742
                  }
                }
              }
              JOINT rRing1
              {
                OFFSET -8.82822 0.546677 1.51678
                CHANNELS 3 Zrotation Xrotation Yrotation
                JOINT rRing2
                {
                  OFFSET -2.60934 -0.819778 -0.0198488
                  CHANNELS 3 Zrotation Xrotation Yrotation
                  End Site
                  {
                    OFFSET -2.33842 -0.294052 0.168128
                  }
                }
              }
              JOINT rPinky1
              {
                OFFSET -8.27202 -0.0477905 -0.4584
                CHANNELS 3 Zrotation Xrotation Yrotation
                JOINT rPinky2
                {
                  OFFSET -1.82734 -0.647385 -0.700984
                  CHANNELS 3 Zrotation Xrotation Yrotation
                  End Site
                  {
                    OFFSET -1.69225 -0.51767 -0.607171
                  }
                }
              }
            }
          }
        }
      }
      JOINT lCollar
      {
        OFFSET 2.68224 19.2634 -4.8768
        CHANNELS 3 Zrotation Xrotation Yrotation
        JOINT lShldr
        {
          OFFSET 8.77824 -1.95073 1.46304
          CHANNELS 3 Zrotation Xrotation Yrotation
          JOINT lForeArm
          {
            OFFSET 28.1742 -1.7115 0.48768
            CHANNELS 3 Zrotation Xrotation Yrotation
            JOINT lHand
            {
              OFFSET 22.5879 0.773209 7.07136
              CHANNELS 3 Zrotation Xrotation Yrotation
              JOINT lThumb1
              {
                OFFSET 1.2192 -0.487915 3.41376
                CHANNELS 3 Zrotation Xrotation Yrotation
                JOINT lThumb2
                {
                  OFFSET 3.37035 -0.52449 3.41376
                  CHANNELS 3 Zrotation Xrotation Yrotation
                  End Site
                  {
                    OFFSET 1.78271 -1.18214 1.43049
                  }
                }
              }
              JOINT lIndex1
              {
                OFFSET 7.75947 0.938293 5.60832
                CHANNELS 3 Zrotation Xrotation Yrotation
                JOINT lIndex2
                {
                  OFFSET 2.54057 -0.884171 1.56538
                  CHANNELS 3 Zrotation Xrotation Yrotation
                  End Site
                  {
                    OFFSET 1.62519 -0.234802 1.16502
                  }
                }
              }
              JOINT lMid1
              {
                OFFSET 8.24714 1.18213 3.41376
                CHANNELS 3 Zrotation Xrotation Yrotation
                JOINT lMid2
                {
                  OFFSET 3.10165 -0.590103 1.0647
                  CHANNELS 3 Zrotation Xrotation Yrotation
                  End Site
                  {
                    OFFSET 2.48547 -0.328903 0.83742
                  }
                }
              }
              JOINT lRing1
              {
                OFFSET 8.82822 0.546677 1.51678
                CHANNELS 3 Zrotation Xrotation Yrotation
                JOINT lRing2
                {
                  OFFSET 2.60934 -0.819778 -0.0198488
                  CHANNELS 3 Zrotation Xrotation Yrotation
                  End Site
                  {
                    OFFSET 2.33842 -0.294052 0.168128
                  }
                }
              }
              JOINT lPinky1
              {
                OFFSET 8.27202 -0.0477905 -0.4584
                CHANNELS 3 Zrotation Xrotation Yrotation
                JOINT lPinky2
                {
                  OFFSET 1.82734 -0.647385 -0.700984
                  CHANNELS 3 Zrotation Xrotation Yrotation
                  End Site
                  {
                    OFFSET 1.69225 -0.51767 -0.607171
                  }
                }
              }
            }
          }
        }
      }
    }
  }
  JOINT rButtock
  {
    OFFSET -8.77824 4.35084 1.2192
    CHANNELS 3 Zrotation Xrotation Yrotation
    JOINT rThigh
    {
      OFFSET 0 -1.70687 -2.19456
      CHANNELS 3 Zrotation Xrotation Yrotation
      JOINT rShin
      {
        OFFSET 0 -36.8199 0.73152
        CHANNELS 3 Zrotation Xrotation Yrotation
        JOINT rFoot
        {
          OFFSET 0.73152 -45.1104 -5.12064
          CHANNELS 3 Zrotation Xrotation Yrotation
          End Site
          {
            OFFSET -1.1221 -3.69964 12.103
          }
        }
      }
    }
  }
  JOINT lButtock
  {
    OFFSET 8.77824 4.35084 1.2192
    CHANNELS 3 Zrotation Xrotation Yrotation
    JOINT lThigh
    {
      OFFSET 0 -1.70687 -2.19456
      CHANNELS 3 Zrotation Xrotation Yrotation
      JOINT lShin
      {
        OFFSET 0 -36.8199 0.73152
        CHANNELS 3 Zrotation Xrotation Yrotation
        JOINT lFoot
        {
          OFFSET -0.73152 -45.1104 -5.12064
          CHANNELS 3 Zrotation Xrotation Yrotation
          End Site
          {
            OFFSET 1.1221 -3.69964 12.103
          }
        }
      }
    }
  }
}
MOTION
Frames:	4
Frame Time:	0.00833333
-147.905 85.1731 4.60669 -0.389724 -0.00134232 0.00664155 0.512933 -0.00341815 0.0146932 0.141687 -0.005402 0.0245504 -1.22247e-014 -7.95139e-016 -6.21202e-017 -3.65329e-014 3.18055e-015 -2.01891e-016 -0 0 0 -0 0 0 -6.0147e-015 1.0871e-017 1.98785e-016 -1.26095e-013 -3.72721e-017 -3.97569e-016 -2.2002e-012 6.63146e-013 1.59028e-014 -2.51524e-011 -6.25724e-013 -1.87653e-013 -5.93372e-011 8.25768e-014 -3.4668e-013 -1.02471e-010 1.39944e-013 -5.97944e-013 -5.93336e-011 8.3092e-014 -3.56222e-013 7.73091 5.47488 0.417314 -5.93388e-011 8.24956e-014 -3.4668e-013 2.90554 0.965183 0.102902 -5.93307e-011 8.29926e-014 -3.44295e-013 10.2786 0.731801 0.0259123 -5.9343e-011 8.46823e-014 -3.30778e-013 2.22167 -0.733487 -0.20892 -6.21096e-015 1.0871e-017 -2.48481e-016 -1.2882e-013 1.49089e-016 -1.78906e-015 -2.19851e-012 -6.51219e-013 1.27222e-014 -2.51676e-011 7.01064e-013 -1.49486e-013 -5.93603e-011 1.09378e-013 -3.33958e-013 -1.02506e-010 1.87653e-013 -5.79656e-013 -5.93655e-011 1.09729e-013 -3.24417e-013 -7.73091 5.47488 -0.417314 -5.93588e-011 1.09033e-013 -3.435e-013 -2.90554 0.965183 -0.102902 -5.93674e-011 1.09431e-013 -3.40319e-013 -10.2786 0.731801 -0.0259123 -5.93513e-011 1.12115e-013 -3.53042e-013 -2.22167 -0.733487 0.20892 -2.03217e-016 0 -3.88251e-019 0.859988 -4.41147 -0.0729697 -0.0021311 2.43942 -0.011252 -0.474421 1.97258 0.0938349 2.03217e-016 0 3.88251e-019 -0.0777122 -2.42095 0.0232548 0.00766796 -1.16604 0.066001 0.465801 3.58744 -0.125219 
-141.013 83.7261 -2.17329 -2.96646 -4.84533 23.6815 0.275753 2.26327 1.66662 -0.457045 0.154487 0.517416 2.32229 1.31353 1.2281 -1.47918 -4.62202 1.78063 -0 0 0 -0 0 0 -3.51502e-014 7.85146e-013 8.89367e-014 22.8929 7.57715 -0.911505 -5.41219 -2.75482 8.10761 0.0644686 -5.63723 -0.778477 -1.44131e-010 -1.32526e-010 6.18823e-011 -2.50582e-010 -2.28753e-010 1.05547e-010 -1.44127e-010 -1.32524e-010 6.18719e-011 7.73091 5.47488 0.417314 -1.44133e-010 -1.32526e-010 6.18806e-011 2.90554 0.965183 0.102902 -1.44125e-010 -1.32526e-010 6.18838e-011 10.2786 0.731801 0.0259123 -1.44136e-010 -1.32524e-010 6.18968e-011 2.22167 -0.733487 -0.20892 -3.53069e-014 7.85146e-013 8.85904e-014 -21.0081 9.46832 -0.786079 4.49134 -2.09772 -6.95224 -8.11535e-005 0.199866 -0.0280887 -2.35111e-010 1.4962e-010 1.55505e-010 -4.05902e-010 2.59187e-010 2.69266e-010 -2.35115e-010 1.4962e-010 1.55514e-010 -7.73091 5.47488 -0.417314 -2.3511e-010 1.4962e-010 1.55496e-010 -2.90554 0.965183 -0.102902 -2.35119e-010 1.4962e-010 1.55501e-010 -10.2786 0.731801 -0.0259123 -2.35104e-010 1.49622e-010 1.5549e-010 -2.22167 -0.733487 0.20892 -2.03217e-016 0 -3.88251e-019 2.70895 -6.55268 4.35373 0.0601161 11.0635 0.210422 -2.11848 -6.10929 -8.58556 2.03217e-016 0 3.88251e-019 -0.866152 -5.26589 -4.74666 -0.052147 8.5086 -0.147911 1.50541 -3.76739 6.6387 
-141.021 83.7215 -2.16511 -1.86034 -7.18204 49.0405 -0.116573 4.65563 3.42399 -1.09533 0.324182 1.03923 4.71615 2.69784 2.52693 -2.72549 -9.49535 3.69841 -0 0 0 -0 0 0 -6.72237e-014 1.69411e-012 1.89547e-013 47.3675 15.5753 -1.92931 -10.2935 -5.48221 16.7363 -0.0370766 -11.5917 -1.6267 -2.4958e-010 -2.84048e-010 1.52335e-010 -4.34831e-010 -4.90322e-010 2.60185e-010 -2.49577e-010 -2.84045e-010 1.52324e-010 7.73091 5.47488 0.417314 -2.49582e-010 -2.84048e-010 1.52332e-010 2.90554 0.965183 0.102902 -2.49575e-010 -2.84048e-010 1.52336e-010 10.2786 0.731801 0.0259123 -2.49585e-010 -2.84047e-010 1.52349e-010 2.22167 -0.733487 -0.20892 -6.73362e-014 1.69411e-012 1.89311e-013 -42.9205 19.4607 -1.69762 8.68342 -4.20731 -14.3213 4.62685e-005 0.411617 -0.057849 -4.33226e-010 3.19166e-010 3.09714e-010 -7.47962e-010 5.52875e-010 5.36327e-010 -4.3323e-010 3.19167e-010 3.09722e-010 -7.73091 5.47488 -0.417314 -4.33227e-010 3.19166e-010 3.09706e-010 -2.90554 0.965183 -0.102902 -4.33236e-010 3.19167e-010 3.09712e-010 -10.2786 0.731801 -0.0259123 -4.33222e-010 3.19168e-010 3.09704e-010 -2.22167 -0.733487 0.20892 -2.03217e-016 0 -3.88251e-019 5.02681 -8.74337 9.08336 0.0490082 20.1799 0.465316 -6.54878 -14.083 -18.2302 2.03217e-016 0 3.88251e-019 -2.21845 -8.18675 -9.85352 -0.0332928 18.7356 -0.391514 4.50678 -11.2632 14.0358 
-141.039 83.7105 -2.15222 0.533248 -5.16713 71.4435 -0.592524 6.77387 5.00159 -1.66276 0.474121 1.50319 6.79772 3.93333 3.69205 -3.55527 -13.8117 5.48352 -0 0 0 -0 0 0 -9.34212e-014 2.35541e-012 2.66413e-013 69.4534 22.7074 -2.93859 -13.9586 -7.60393 24.5242 -0.283656 -16.8989 -2.42909 -3.13718e-010 -3.97743e-010 1.8634e-010 -5.46805e-010 -6.86538e-010 3.17836e-010 -3.13715e-010 -3.97739e-010 1.86328e-010 7.73091 5.47488 0.417314 -3.1372e-010 -3.97744e-010 1.86335e-010 2.90554 0.965183 0.102902 -3.13714e-010 -3.97744e-010 1.8634e-010 10.2786 0.731801 0.0259123 -3.13723e-010 -3.97743e-010 1.86352e-010 2.22167 -0.733487 -0.20892 -9.34988e-014 2.35541e-012 2.66268e-013 -62.1546 28.3821 -2.64412 11.9775 -5.92333 -20.9598 0.00034446 0.599596 -0.0842701 -5.86611e-010 4.48642e-010 4.67183e-010 -1.01269e-009 7.77185e-010 8.08957e-010 -5.86614e-010 4.48642e-010 4.6719e-010 -7.73091 5.47488 -0.417314 -5.86613e-010 4.48641e-010 4.67176e-010 -2.90554 0.965183 -0.102902 -5.86622e-010 4.48642e-010 4.67183e-010 -10.2786 0.731801 -0.0259123 -5.86609e-010 4.48643e-010 4.67177e-010 -2.22167 -0.733487 0.20892 -2.03217e-016 0 -3.88251e-019 7.40345 -10.6038 13.3533 -0.0391431 28.3098 0.729242 -12.8595 -20.1356 -27.6139 2.03217e-016 0 3.88251e-019 -3.86857 -10.6682 -14.4818 0.0669477 27.8565 -0.645644 8.87243 -17.3832 21.1308 
